<mxfile host="app.diagrams.net" modified="2024-04-16T14:05:22.080Z" agent="Mozilla/5.0 (X11; Linux x86_64; rv:124.0) Gecko/20100101 Firefox/124.0" etag="kZw9_BLKfUQjaortRDFZ" version="24.2.3" type="device">
  <diagram name="Page-1" id="3xyCOoqSUaGUcmCVOFka">
    <mxGraphModel dx="265" dy="177" grid="1" gridSize="10" guides="1" tooltips="1" connect="1" arrows="1" fold="1" page="1" pageScale="1" pageWidth="850" pageHeight="1100" math="0" shadow="0">
      <root>
        <mxCell id="0" />
        <mxCell id="1" parent="0" />
        <mxCell id="afAwSLG7bqySJ-1Bhtqy-1" value="" style="rounded=1;whiteSpace=wrap;html=1;" vertex="1" parent="1">
          <mxGeometry x="930" y="90" width="810" height="730" as="geometry" />
        </mxCell>
        <mxCell id="afAwSLG7bqySJ-1Bhtqy-2" value="&lt;font style=&quot;font-size: 29px;&quot;&gt;Backend&lt;/font&gt;" style="text;html=1;strokeColor=none;fillColor=none;align=center;verticalAlign=middle;whiteSpace=wrap;rounded=0;" vertex="1" parent="1">
          <mxGeometry x="1285" y="100" width="130" height="40" as="geometry" />
        </mxCell>
        <mxCell id="afAwSLG7bqySJ-1Bhtqy-4" style="edgeStyle=orthogonalEdgeStyle;rounded=0;orthogonalLoop=1;jettySize=auto;html=1;exitX=1;exitY=0.5;exitDx=0;exitDy=0;" edge="1" parent="1" source="afAwSLG7bqySJ-1Bhtqy-5" target="afAwSLG7bqySJ-1Bhtqy-12">
          <mxGeometry relative="1" as="geometry" />
        </mxCell>
        <mxCell id="afAwSLG7bqySJ-1Bhtqy-5" value="&lt;font style=&quot;font-size: 20px;&quot;&gt;API&lt;/font&gt;" style="rounded=0;whiteSpace=wrap;html=1;" vertex="1" parent="1">
          <mxGeometry x="950" y="450" width="110" height="50" as="geometry" />
        </mxCell>
        <mxCell id="afAwSLG7bqySJ-1Bhtqy-7" style="edgeStyle=orthogonalEdgeStyle;rounded=0;orthogonalLoop=1;jettySize=auto;html=1;exitX=1;exitY=0.5;exitDx=0;exitDy=0;entryX=0;entryY=0.5;entryDx=0;entryDy=0;" edge="1" parent="1" source="afAwSLG7bqySJ-1Bhtqy-12" target="afAwSLG7bqySJ-1Bhtqy-13">
          <mxGeometry relative="1" as="geometry" />
        </mxCell>
        <mxCell id="afAwSLG7bqySJ-1Bhtqy-8" style="edgeStyle=orthogonalEdgeStyle;rounded=0;orthogonalLoop=1;jettySize=auto;html=1;exitX=0.5;exitY=1;exitDx=0;exitDy=0;entryX=0.5;entryY=0;entryDx=0;entryDy=0;" edge="1" parent="1" source="afAwSLG7bqySJ-1Bhtqy-12" target="afAwSLG7bqySJ-1Bhtqy-28">
          <mxGeometry relative="1" as="geometry" />
        </mxCell>
        <mxCell id="afAwSLG7bqySJ-1Bhtqy-9" style="edgeStyle=orthogonalEdgeStyle;rounded=0;orthogonalLoop=1;jettySize=auto;html=1;exitX=0.5;exitY=0;exitDx=0;exitDy=0;entryX=0.5;entryY=1;entryDx=0;entryDy=0;" edge="1" parent="1" source="afAwSLG7bqySJ-1Bhtqy-12" target="afAwSLG7bqySJ-1Bhtqy-34">
          <mxGeometry relative="1" as="geometry" />
        </mxCell>
        <mxCell id="afAwSLG7bqySJ-1Bhtqy-10" style="edgeStyle=orthogonalEdgeStyle;rounded=0;orthogonalLoop=1;jettySize=auto;html=1;exitX=1;exitY=0.25;exitDx=0;exitDy=0;entryX=0.25;entryY=1;entryDx=0;entryDy=0;" edge="1" parent="1" source="afAwSLG7bqySJ-1Bhtqy-12" target="afAwSLG7bqySJ-1Bhtqy-23">
          <mxGeometry relative="1" as="geometry" />
        </mxCell>
        <mxCell id="afAwSLG7bqySJ-1Bhtqy-11" style="edgeStyle=orthogonalEdgeStyle;rounded=0;orthogonalLoop=1;jettySize=auto;html=1;exitX=1;exitY=0.75;exitDx=0;exitDy=0;entryX=0.25;entryY=0;entryDx=0;entryDy=0;" edge="1" parent="1" source="afAwSLG7bqySJ-1Bhtqy-12" target="afAwSLG7bqySJ-1Bhtqy-17">
          <mxGeometry relative="1" as="geometry" />
        </mxCell>
        <mxCell id="afAwSLG7bqySJ-1Bhtqy-12" value="Graph Controller" style="rounded=0;whiteSpace=wrap;html=1;fontSize=20;" vertex="1" parent="1">
          <mxGeometry x="1160" y="445" width="120" height="60" as="geometry" />
        </mxCell>
        <mxCell id="afAwSLG7bqySJ-1Bhtqy-13" value="Activation" style="swimlane;fontStyle=0;align=center;verticalAlign=top;childLayout=stackLayout;horizontal=1;startSize=26;horizontalStack=0;resizeParent=1;resizeLast=0;collapsible=1;marginBottom=0;rounded=0;shadow=0;strokeWidth=1;" vertex="1" parent="1">
          <mxGeometry x="1480" y="423" width="210" height="104" as="geometry">
            <mxRectangle x="130" y="380" width="160" height="26" as="alternateBounds" />
          </mxGeometry>
        </mxCell>
        <mxCell id="afAwSLG7bqySJ-1Bhtqy-14" value="Function: string" style="text;align=left;verticalAlign=top;spacingLeft=4;spacingRight=4;overflow=hidden;rotatable=0;points=[[0,0.5],[1,0.5]];portConstraint=eastwest;" vertex="1" parent="afAwSLG7bqySJ-1Bhtqy-13">
          <mxGeometry y="26" width="210" height="26" as="geometry" />
        </mxCell>
        <mxCell id="afAwSLG7bqySJ-1Bhtqy-15" value="Category: string" style="text;align=left;verticalAlign=top;spacingLeft=4;spacingRight=4;overflow=hidden;rotatable=0;points=[[0,0.5],[1,0.5]];portConstraint=eastwest;rounded=0;shadow=0;html=0;" vertex="1" parent="afAwSLG7bqySJ-1Bhtqy-13">
          <mxGeometry y="52" width="210" height="26" as="geometry" />
        </mxCell>
        <mxCell id="afAwSLG7bqySJ-1Bhtqy-16" value="XPosition: float" style="text;align=left;verticalAlign=top;spacingLeft=4;spacingRight=4;overflow=hidden;rotatable=0;points=[[0,0.5],[1,0.5]];portConstraint=eastwest;rounded=0;shadow=0;html=0;" vertex="1" parent="afAwSLG7bqySJ-1Bhtqy-13">
          <mxGeometry y="78" width="210" height="26" as="geometry" />
        </mxCell>
        <mxCell id="afAwSLG7bqySJ-1Bhtqy-17" value="Link" style="swimlane;fontStyle=0;align=center;verticalAlign=top;childLayout=stackLayout;horizontal=1;startSize=26;horizontalStack=0;resizeParent=1;resizeLast=0;collapsible=1;marginBottom=0;rounded=0;shadow=0;strokeWidth=1;" vertex="1" parent="1">
          <mxGeometry x="1400" y="604" width="240" height="156" as="geometry">
            <mxRectangle x="130" y="380" width="160" height="26" as="alternateBounds" />
          </mxGeometry>
        </mxCell>
        <mxCell id="afAwSLG7bqySJ-1Bhtqy-18" value="Source: Node | NodeCollection | Position" style="text;align=left;verticalAlign=top;spacingLeft=4;spacingRight=4;overflow=hidden;rotatable=0;points=[[0,0.5],[1,0.5]];portConstraint=eastwest;" vertex="1" parent="afAwSLG7bqySJ-1Bhtqy-17">
          <mxGeometry y="26" width="240" height="26" as="geometry" />
        </mxCell>
        <mxCell id="afAwSLG7bqySJ-1Bhtqy-19" value="Target: Node | NodeCollection | Position" style="text;align=left;verticalAlign=top;spacingLeft=4;spacingRight=4;overflow=hidden;rotatable=0;points=[[0,0.5],[1,0.5]];portConstraint=eastwest;rounded=0;shadow=0;html=0;" vertex="1" parent="afAwSLG7bqySJ-1Bhtqy-17">
          <mxGeometry y="52" width="240" height="26" as="geometry" />
        </mxCell>
        <mxCell id="afAwSLG7bqySJ-1Bhtqy-20" value="Weight: float" style="text;align=left;verticalAlign=top;spacingLeft=4;spacingRight=4;overflow=hidden;rotatable=0;points=[[0,0.5],[1,0.5]];portConstraint=eastwest;rounded=0;shadow=0;html=0;" vertex="1" parent="afAwSLG7bqySJ-1Bhtqy-17">
          <mxGeometry y="78" width="240" height="26" as="geometry" />
        </mxCell>
        <mxCell id="afAwSLG7bqySJ-1Bhtqy-21" value="HasDirection: boolean" style="text;align=left;verticalAlign=top;spacingLeft=4;spacingRight=4;overflow=hidden;rotatable=0;points=[[0,0.5],[1,0.5]];portConstraint=eastwest;rounded=0;shadow=0;html=0;" vertex="1" parent="afAwSLG7bqySJ-1Bhtqy-17">
          <mxGeometry y="104" width="240" height="26" as="geometry" />
        </mxCell>
        <mxCell id="afAwSLG7bqySJ-1Bhtqy-22" value="IsInput: boolean" style="text;align=left;verticalAlign=top;spacingLeft=4;spacingRight=4;overflow=hidden;rotatable=0;points=[[0,0.5],[1,0.5]];portConstraint=eastwest;rounded=0;shadow=0;html=0;" vertex="1" parent="afAwSLG7bqySJ-1Bhtqy-17">
          <mxGeometry y="130" width="240" height="26" as="geometry" />
        </mxCell>
        <mxCell id="afAwSLG7bqySJ-1Bhtqy-23" value="Node" style="swimlane;fontStyle=0;align=center;verticalAlign=top;childLayout=stackLayout;horizontal=1;startSize=26;horizontalStack=0;resizeParent=1;resizeLast=0;collapsible=1;marginBottom=0;rounded=0;shadow=0;strokeWidth=1;" vertex="1" parent="1">
          <mxGeometry x="1400" y="198" width="210" height="134" as="geometry">
            <mxRectangle x="130" y="380" width="160" height="26" as="alternateBounds" />
          </mxGeometry>
        </mxCell>
        <mxCell id="afAwSLG7bqySJ-1Bhtqy-24" value="Bias: float" style="text;align=left;verticalAlign=top;spacingLeft=4;spacingRight=4;overflow=hidden;rotatable=0;points=[[0,0.5],[1,0.5]];portConstraint=eastwest;" vertex="1" parent="afAwSLG7bqySJ-1Bhtqy-23">
          <mxGeometry y="26" width="210" height="26" as="geometry" />
        </mxCell>
        <mxCell id="afAwSLG7bqySJ-1Bhtqy-25" value="X: float" style="text;align=left;verticalAlign=top;spacingLeft=4;spacingRight=4;overflow=hidden;rotatable=0;points=[[0,0.5],[1,0.5]];portConstraint=eastwest;rounded=0;shadow=0;html=0;" vertex="1" parent="afAwSLG7bqySJ-1Bhtqy-23">
          <mxGeometry y="52" width="210" height="26" as="geometry" />
        </mxCell>
        <mxCell id="afAwSLG7bqySJ-1Bhtqy-26" value="Y: float" style="text;align=left;verticalAlign=top;spacingLeft=4;spacingRight=4;overflow=hidden;rotatable=0;points=[[0,0.5],[1,0.5]];portConstraint=eastwest;rounded=0;shadow=0;html=0;" vertex="1" parent="afAwSLG7bqySJ-1Bhtqy-23">
          <mxGeometry y="78" width="210" height="26" as="geometry" />
        </mxCell>
        <mxCell id="afAwSLG7bqySJ-1Bhtqy-27" value="IsInput: boolean" style="text;align=left;verticalAlign=top;spacingLeft=4;spacingRight=4;overflow=hidden;rotatable=0;points=[[0,0.5],[1,0.5]];portConstraint=eastwest;rounded=0;shadow=0;html=0;" vertex="1" parent="afAwSLG7bqySJ-1Bhtqy-23">
          <mxGeometry y="104" width="210" height="26" as="geometry" />
        </mxCell>
        <mxCell id="afAwSLG7bqySJ-1Bhtqy-28" value="LinkCollection" style="swimlane;fontStyle=0;align=center;verticalAlign=top;childLayout=stackLayout;horizontal=1;startSize=26;horizontalStack=0;resizeParent=1;resizeLast=0;collapsible=1;marginBottom=0;rounded=0;shadow=0;strokeWidth=1;" vertex="1" parent="1">
          <mxGeometry x="1110" y="604" width="240" height="156" as="geometry">
            <mxRectangle x="130" y="380" width="160" height="26" as="alternateBounds" />
          </mxGeometry>
        </mxCell>
        <mxCell id="afAwSLG7bqySJ-1Bhtqy-29" value="Source: Node | NodeCollection | Position" style="text;align=left;verticalAlign=top;spacingLeft=4;spacingRight=4;overflow=hidden;rotatable=0;points=[[0,0.5],[1,0.5]];portConstraint=eastwest;" vertex="1" parent="afAwSLG7bqySJ-1Bhtqy-28">
          <mxGeometry y="26" width="240" height="26" as="geometry" />
        </mxCell>
        <mxCell id="afAwSLG7bqySJ-1Bhtqy-30" value="Target: Node | NodeCollection | Position" style="text;align=left;verticalAlign=top;spacingLeft=4;spacingRight=4;overflow=hidden;rotatable=0;points=[[0,0.5],[1,0.5]];portConstraint=eastwest;rounded=0;shadow=0;html=0;" vertex="1" parent="afAwSLG7bqySJ-1Bhtqy-28">
          <mxGeometry y="52" width="240" height="26" as="geometry" />
        </mxCell>
        <mxCell id="afAwSLG7bqySJ-1Bhtqy-31" value="NumLinks: int" style="text;align=left;verticalAlign=top;spacingLeft=4;spacingRight=4;overflow=hidden;rotatable=0;points=[[0,0.5],[1,0.5]];portConstraint=eastwest;rounded=0;shadow=0;html=0;" vertex="1" parent="afAwSLG7bqySJ-1Bhtqy-28">
          <mxGeometry y="78" width="240" height="26" as="geometry" />
        </mxCell>
        <mxCell id="afAwSLG7bqySJ-1Bhtqy-32" value="HasDirection: boolean" style="text;align=left;verticalAlign=top;spacingLeft=4;spacingRight=4;overflow=hidden;rotatable=0;points=[[0,0.5],[1,0.5]];portConstraint=eastwest;rounded=0;shadow=0;html=0;" vertex="1" parent="afAwSLG7bqySJ-1Bhtqy-28">
          <mxGeometry y="104" width="240" height="26" as="geometry" />
        </mxCell>
        <mxCell id="afAwSLG7bqySJ-1Bhtqy-33" value="IsInput: boolean" style="text;align=left;verticalAlign=top;spacingLeft=4;spacingRight=4;overflow=hidden;rotatable=0;points=[[0,0.5],[1,0.5]];portConstraint=eastwest;rounded=0;shadow=0;html=0;" vertex="1" parent="afAwSLG7bqySJ-1Bhtqy-28">
          <mxGeometry y="130" width="240" height="26" as="geometry" />
        </mxCell>
        <mxCell id="afAwSLG7bqySJ-1Bhtqy-34" value="NodeCollection" style="swimlane;fontStyle=0;align=center;verticalAlign=top;childLayout=stackLayout;horizontal=1;startSize=26;horizontalStack=0;resizeParent=1;resizeLast=0;collapsible=1;marginBottom=0;rounded=0;shadow=0;strokeWidth=1;" vertex="1" parent="1">
          <mxGeometry x="1140" y="198" width="210" height="110" as="geometry">
            <mxRectangle x="130" y="380" width="160" height="26" as="alternateBounds" />
          </mxGeometry>
        </mxCell>
        <mxCell id="afAwSLG7bqySJ-1Bhtqy-35" value="X: float" style="text;align=left;verticalAlign=top;spacingLeft=4;spacingRight=4;overflow=hidden;rotatable=0;points=[[0,0.5],[1,0.5]];portConstraint=eastwest;rounded=0;shadow=0;html=0;" vertex="1" parent="afAwSLG7bqySJ-1Bhtqy-34">
          <mxGeometry y="26" width="210" height="26" as="geometry" />
        </mxCell>
        <mxCell id="afAwSLG7bqySJ-1Bhtqy-36" value="NumNodes: int" style="text;align=left;verticalAlign=top;spacingLeft=4;spacingRight=4;overflow=hidden;rotatable=0;points=[[0,0.5],[1,0.5]];portConstraint=eastwest;rounded=0;shadow=0;html=0;" vertex="1" parent="afAwSLG7bqySJ-1Bhtqy-34">
          <mxGeometry y="52" width="210" height="26" as="geometry" />
        </mxCell>
        <mxCell id="afAwSLG7bqySJ-1Bhtqy-37" value="IsInput: boolean" style="text;align=left;verticalAlign=top;spacingLeft=4;spacingRight=4;overflow=hidden;rotatable=0;points=[[0,0.5],[1,0.5]];portConstraint=eastwest;rounded=0;shadow=0;html=0;" vertex="1" parent="afAwSLG7bqySJ-1Bhtqy-34">
          <mxGeometry y="78" width="210" height="26" as="geometry" />
        </mxCell>
        <mxCell id="afAwSLG7bqySJ-1Bhtqy-38" value="To Frontend" style="text;html=1;align=center;verticalAlign=middle;whiteSpace=wrap;rounded=0;" vertex="1" parent="1">
          <mxGeometry x="840" y="460" width="60" height="30" as="geometry" />
        </mxCell>
        <mxCell id="afAwSLG7bqySJ-1Bhtqy-39" value="" style="endArrow=classic;html=1;rounded=0;entryX=1;entryY=0.25;entryDx=0;entryDy=0;exitX=-0.005;exitY=0.343;exitDx=0;exitDy=0;exitPerimeter=0;" edge="1" parent="1" source="afAwSLG7bqySJ-1Bhtqy-5" target="afAwSLG7bqySJ-1Bhtqy-38">
          <mxGeometry width="50" height="50" relative="1" as="geometry">
            <mxPoint x="910" y="530" as="sourcePoint" />
            <mxPoint x="960" y="480" as="targetPoint" />
          </mxGeometry>
        </mxCell>
        <mxCell id="afAwSLG7bqySJ-1Bhtqy-40" value="" style="endArrow=classic;html=1;rounded=0;entryX=-0.003;entryY=0.646;entryDx=0;entryDy=0;exitX=1;exitY=0.75;exitDx=0;exitDy=0;entryPerimeter=0;" edge="1" parent="1" source="afAwSLG7bqySJ-1Bhtqy-38" target="afAwSLG7bqySJ-1Bhtqy-5">
          <mxGeometry width="50" height="50" relative="1" as="geometry">
            <mxPoint x="959" y="477" as="sourcePoint" />
            <mxPoint x="910" y="478" as="targetPoint" />
          </mxGeometry>
        </mxCell>
      </root>
    </mxGraphModel>
  </diagram>
</mxfile>
